<svg height="512pt" viewBox="0 0 512 512" width="512pt" xmlns="http://www.w3.org/2000/svg"><path d="m24 248h464c8.835938 0 16 7.164062 16 16v224c0 8.835938-7.164062 16-16 16h-464c-8.835938 0-16-7.164062-16-16v-224c0-8.835938 7.164062-16 16-16zm0 0" fill="#9fa8da"/><path d="m424 376h48v96h-48zm0 0" fill="#ff8a65"/><g fill="#ffe082"><path d="m120 440h256c8.835938 0 16 7.164062 16 16s-7.164062 16-16 16h-256c-8.835938 0-16-7.164062-16-16s7.164062-16 16-16zm0 0"/><path d="m40 440h32v32h-32zm0 0"/><path d="m40 376h32v32h-32zm0 0"/><path d="m104 376h32v32h-32zm0 0"/><path d="m168 376h32v32h-32zm0 0"/><path d="m232 376h32v32h-32zm0 0"/><path d="m296 376h32v32h-32zm0 0"/><path d="m360 376h32v32h-32zm0 0"/><path d="m40 312h32v32h-32zm0 0"/><path d="m104 312h32v32h-32zm0 0"/><path d="m168 312h32v32h-32zm0 0"/><path d="m232 312h32v32h-32zm0 0"/><path d="m296 312h32v32h-32zm0 0"/><path d="m360 312h112v32h-112zm0 0"/></g><path d="m408 104v64h32v-16c0-8.835938 7.164062-16 16-16s16 7.164062 16 16v16h32v-64zm0 0" fill="#ffd54f"/><path d="m280 72v-16c0-26.507812-21.492188-48-48-48s-48 21.492188-48 48v64c0 26.507812 21.492188 48 48 48s48-21.492188 48-48v-16h224v-32zm-32 48c0 8.835938-7.164062 16-16 16s-16-7.164062-16-16v-64c0-8.835938 7.164062-16 16-16s16 7.164062 16 16zm0 0" fill="#ffe082"/><path d="m32 272h48v16h-48zm0 0" fill="#fff"/><path d="m96 272h48v16h-48zm0 0" fill="#fff"/><path d="m160 272h48v16h-48zm0 0" fill="#fff"/><path d="m224 272h48v16h-48zm0 0" fill="#fff"/><path d="m288 272h48v16h-48zm0 0" fill="#fff"/><path d="m400 272h32v16h-32zm0 0" fill="#fff"/><path d="m448 272h32v16h-32zm0 0" fill="#fff"/><path d="m416 480h64v-112h-64zm16-96h32v80h-32zm0 0"/><path d="m120 480h256c13.253906 0 24-10.746094 24-24s-10.746094-24-24-24h-256c-13.253906 0-24 10.746094-24 24s10.746094 24 24 24zm0-32h256c4.417969 0 8 3.582031 8 8s-3.582031 8-8 8h-256c-4.417969 0-8-3.582031-8-8s3.582031-8 8-8zm0 0"/><path d="m80 432h-48v48h48zm-16 32h-16v-16h16zm0 0"/><path d="m80 368h-48v48h48zm-16 32h-16v-16h16zm0 0"/><path d="m144 368h-48v48h48zm-16 32h-16v-16h16zm0 0"/><path d="m208 368h-48v48h48zm-16 32h-16v-16h16zm0 0"/><path d="m272 368h-48v48h48zm-16 32h-16v-16h16zm0 0"/><path d="m336 368h-48v48h48zm-16 32h-16v-16h16zm0 0"/><path d="m400 368h-48v48h48zm-16 32h-16v-16h16zm0 0"/><path d="m80 304h-48v48h48zm-16 32h-16v-16h16zm0 0"/><path d="m144 304h-48v48h48zm-16 32h-16v-16h16zm0 0"/><path d="m208 304h-48v48h48zm-16 32h-16v-16h16zm0 0"/><path d="m272 304h-48v48h48zm-16 32h-16v-16h16zm0 0"/><path d="m336 304h-48v48h48zm-16 32h-16v-16h16zm0 0"/><path d="m480 304h-128v48h128zm-16 32h-96v-16h96zm0 0"/><path d="m288 64v-8c0-30.929688-25.070312-56-56-56s-56 25.070312-56 56v24h-108c-37.554688 0-68 30.445312-68 68s30.445312 68 68 68h172c4.417969 0 8 3.582031 8 8v16h-224c-13.253906 0-24 10.746094-24 24v224c0 13.253906 10.746094 24 24 24h464c13.253906 0 24-10.746094 24-24v-224c0-13.253906-10.746094-24-24-24h-224v-16c0-13.253906-10.746094-24-24-24h-172c-28.71875 0-52-23.28125-52-52s23.28125-52 52-52h108v24c0 30.929688 25.070312 56 56 56s56-25.070312 56-56v-8h112v64h48v-24c0-4.417969 3.582031-8 8-8s8 3.582031 8 8v24h48v-112zm200 192c4.417969 0 8 3.582031 8 8v224c0 4.417969-3.582031 8-8 8h-464c-4.417969 0-8-3.582031-8-8v-224c0-4.417969 3.582031-8 8-8zm8-96h-16v-8c0-13.253906-10.746094-24-24-24s-24 10.746094-24 24v8h-16v-48h80zm0-64h-224v24c0 22.089844-17.910156 40-40 40s-40-17.910156-40-40v-64c0-22.089844 17.910156-40 40-40s40 17.910156 40 40v24h224zm0 0"/><path d="m232 32c-13.253906 0-24 10.746094-24 24v64c0 13.253906 10.746094 24 24 24s24-10.746094 24-24v-64c0-13.253906-10.746094-24-24-24zm8 88c0 4.417969-3.582031 8-8 8s-8-3.582031-8-8v-64c0-4.417969 3.582031-8 8-8s8 3.582031 8 8zm0 0"/></svg>