<svg height="511pt" viewBox="0 0 511.99973 511" width="511pt" xmlns="http://www.w3.org/2000/svg"><path d="m397.949219 130.453125h-283.894531c-11.042969 0-19.992188-8.949219-19.992188-19.992187v-79.972657c0-11.039062 8.949219-19.992187 19.992188-19.992187h283.894531c11.042969 0 19.992187 8.953125 19.992187 19.992187v79.972657c0 11.039062-8.953125 19.992187-19.992187 19.992187zm0 0" fill="#dff6fc"/><path d="m187.859375 70.476562c0 11.039063-8.949219 19.992188-19.992187 19.992188-11.042969 0-19.992188-8.953125-19.992188-19.992188 0-11.042968 8.949219-19.996093 19.992188-19.996093 11.042968 0 19.992187 8.953125 19.992187 19.996093zm0 0" fill="#f5737f"/><path d="m397.949219 250.410156h-283.894531c-11.042969 0-19.992188-8.953125-19.992188-19.996094v-79.96875c0-11.042968 8.949219-19.992187 19.992188-19.992187h283.894531c11.042969 0 19.992187 8.949219 19.992187 19.992187v79.96875c0 11.042969-8.953125 19.996094-19.992187 19.996094zm0 0" fill="#b0e7f8"/><path d="m187.859375 190.429688c0 11.042968-8.949219 19.992187-19.992187 19.992187-11.042969 0-19.992188-8.949219-19.992188-19.992187 0-11.039063 8.949219-19.992188 19.992188-19.992188 11.042968 0 19.992187 8.953125 19.992187 19.992188zm0 0" fill="#f5737f"/><path d="m397.949219 370.363281h-283.894531c-11.042969 0-19.992188-8.949219-19.992188-19.992187v-79.96875c0-11.042969 8.949219-19.992188 19.992188-19.992188h283.894531c11.042969 0 19.992187 8.949219 19.992187 19.992188v79.96875c0 11.042968-8.953125 19.992187-19.992187 19.992187zm0 0" fill="#dff6fc"/><path d="m187.859375 310.386719c0 11.042969-8.949219 19.992187-19.992187 19.992187-11.042969 0-19.992188-8.949218-19.992188-19.992187s8.949219-19.992188 19.992188-19.992188c11.042968 0 19.992187 8.949219 19.992187 19.992188zm0 0" fill="#f5737f"/><path d="m35.214844 328.515625v113.273437h-25.21875l60.527344 60.527344 60.523437-60.527344h-25.21875v-113.273437zm0 0" fill="#ffcb7c"/><path d="m406.171875 430.332031v-113.273437h-25.21875l60.527344-60.527344 60.523437 60.527344h-25.21875v113.273437zm0 0" fill="#d8ec84"/><path d="m167.867188 100.464844c16.535156 0 29.988281-13.453125 29.988281-29.988282 0-16.539062-13.453125-29.992187-29.988281-29.992187-16.535157 0-29.988282 13.453125-29.988282 29.992187 0 16.535157 13.453125 29.988282 29.988282 29.988282zm0-39.984375c5.511718 0 9.996093 4.484375 9.996093 9.996093 0 5.511719-4.484375 9.996094-9.996093 9.996094-5.511719 0-9.996094-4.484375-9.996094-9.996094 0-5.511718 4.484375-9.996093 9.996094-9.996093zm0 0"/><path d="m250.503906 80.472656c2.628906 0 5.207032-1.070312 7.066406-2.929687 1.859376-1.859375 2.929688-4.4375 2.929688-7.066407 0-2.628906-1.070312-5.210937-2.929688-7.070312-1.859374-1.859375-4.4375-2.925781-7.066406-2.925781s-5.207031 1.066406-7.066406 2.925781-2.929688 4.441406-2.929688 7.070312c0 2.628907 1.070313 5.207032 2.929688 7.066407s4.4375 2.929687 7.066406 2.929687zm0 0"/><path d="m307.3125 80.472656c2.636719 0 5.207031-1.070312 7.066406-2.929687 1.871094-1.859375 2.929688-4.4375 2.929688-7.066407 0-2.640624-1.058594-5.210937-2.929688-7.070312-1.859375-1.859375-4.429687-2.925781-7.066406-2.925781-2.628906 0-5.207031 1.066406-7.066406 2.925781s-2.929688 4.429688-2.929688 7.070312c0 2.628907 1.070313 5.207032 2.929688 7.066407 1.855468 1.859375 4.4375 2.929687 7.066406 2.929687zm0 0"/><path d="m364.128906 80.472656c2.628906 0 5.210938-1.070312 7.070313-2.929687s2.925781-4.4375 2.925781-7.066407c0-2.628906-1.066406-5.210937-2.925781-7.070312s-4.441407-2.925781-7.070313-2.925781-5.207031 1.066406-7.066406 2.925781-2.929688 4.429688-2.929688 7.070312c0 2.628907 1.070313 5.207032 2.929688 7.066407s4.441406 2.929687 7.066406 2.929687zm0 0"/><path d="m167.867188 160.441406c-16.535157 0-29.988282 13.453125-29.988282 29.988282 0 16.535156 13.453125 29.988281 29.988282 29.988281 16.535156 0 29.988281-13.453125 29.988281-29.988281 0-16.535157-13.453125-29.988282-29.988281-29.988282zm0 39.984375c-5.511719 0-9.996094-4.484375-9.996094-9.996093 0-5.511719 4.484375-9.996094 9.996094-9.996094 5.511718 0 9.996093 4.484375 9.996093 9.996094 0 5.511718-4.484375 9.996093-9.996093 9.996093zm0 0"/><path d="m250.503906 180.433594c-2.628906 0-5.207031 1.070312-7.066406 2.929687s-2.929688 4.4375-2.929688 7.066407c0 2.628906 1.070313 5.210937 2.929688 7.066406 1.859375 1.859375 4.4375 2.929687 7.066406 2.929687s5.207032-1.066406 7.066406-2.929687c1.859376-1.855469 2.929688-4.4375 2.929688-7.066406 0-2.628907-1.070312-5.207032-2.929688-7.066407-1.859374-1.859375-4.4375-2.929687-7.066406-2.929687zm0 0"/><path d="m307.3125 180.433594c-2.628906 0-5.207031 1.070312-7.066406 2.929687s-2.929688 4.4375-2.929688 7.066407c0 2.628906 1.070313 5.210937 2.929688 7.066406 1.867187 1.859375 4.4375 2.929687 7.066406 2.929687 2.636719 0 5.207031-1.066406 7.066406-2.929687 1.871094-1.855469 2.929688-4.4375 2.929688-7.066406 0-2.628907-1.058594-5.207032-2.929688-7.066407-1.859375-1.859375-4.429687-2.929687-7.066406-2.929687zm0 0"/><path d="m364.128906 180.433594c-2.636718 0-5.207031 1.070312-7.074218 2.929687-1.859376 1.859375-2.921876 4.4375-2.921876 7.066407 0 2.628906 1.0625 5.210937 2.921876 7.066406 1.867187 1.859375 4.445312 2.929687 7.074218 2.929687s5.210938-1.066406 7.070313-2.929687c1.859375-1.855469 2.925781-4.4375 2.925781-7.066406 0-2.628907-1.066406-5.207032-2.925781-7.066407s-4.441407-2.929687-7.070313-2.929687zm0 0"/><path d="m167.867188 280.398438c-16.535157 0-29.988282 13.453124-29.988282 29.988281 0 16.535156 13.453125 29.988281 29.988282 29.988281 16.535156 0 29.988281-13.453125 29.988281-29.988281 0-16.535157-13.453125-29.988281-29.988281-29.988281zm0 39.984374c-5.511719 0-9.996094-4.484374-9.996094-9.996093s4.484375-9.996094 9.996094-9.996094c5.511718 0 9.996093 4.484375 9.996093 9.996094s-4.484375 9.996093-9.996093 9.996093zm0 0"/><path d="m250.503906 300.390625c-2.628906 0-5.207031 1.066406-7.066406 2.929687-1.859375 1.859376-2.929688 4.4375-2.929688 7.066407 0 2.628906 1.070313 5.207031 2.929688 7.066406s4.4375 2.929687 7.066406 2.929687 5.207032-1.070312 7.066406-2.929687c1.859376-1.859375 2.929688-4.4375 2.929688-7.066406 0-2.628907-1.070312-5.207031-2.929688-7.066407-1.859374-1.863281-4.4375-2.929687-7.066406-2.929687zm0 0"/><path d="m307.3125 300.390625c-2.628906 0-5.207031 1.066406-7.066406 2.929687-1.859375 1.859376-2.929688 4.4375-2.929688 7.066407 0 2.628906 1.070313 5.207031 2.929688 7.066406s4.4375 2.929687 7.066406 2.929687c2.636719 0 5.207031-1.070312 7.066406-2.929687 1.871094-1.859375 2.929688-4.4375 2.929688-7.066406 0-2.628907-1.058594-5.207031-2.929688-7.066407-1.859375-1.863281-4.429687-2.929687-7.066406-2.929687zm0 0"/><path d="m417.941406 468.328125c-2.628906 0-5.207031 1.070313-7.066406 2.929687-1.859375 1.859376-2.929688 4.4375-2.929688 7.066407 0 2.628906 1.070313 5.207031 2.929688 7.066406s4.4375 2.929687 7.066406 2.929687 5.207032-1.070312 7.066406-2.929687c1.859376-1.859375 2.929688-4.4375 2.929688-7.066406 0-2.628907-1.070312-5.207031-2.929688-7.066407-1.859374-1.859374-4.4375-2.929687-7.066406-2.929687zm0 0"/><path d="m509.074219 309.988281-60.527344-60.523437c-3.902344-3.902344-10.230469-3.902344-14.136719 0l-8.96875 8.96875c-1.292968-2.953125-3.042968-5.65625-5.164062-8.027344 4.757812-5.308594 7.660156-12.316406 7.660156-19.992188v-79.96875c0-7.675781-2.902344-14.683593-7.660156-19.992187 4.757812-5.3125 7.660156-12.320313 7.660156-19.992187v-79.972657c0-16.535156-13.453125-29.988281-29.988281-29.988281h-283.898438c-16.535156 0-29.988281 13.453125-29.988281 29.988281v79.972657c0 7.671874 2.902344 14.679687 7.660156 19.992187-4.757812 5.308594-7.660156 12.316406-7.660156 19.992187v79.96875c0 7.675782 2.902344 14.683594 7.660156 19.992188-4.757812 5.3125-7.660156 12.320312-7.660156 19.992188v48.121093h-48.847656c-5.519532 0-9.996094 4.476563-9.996094 9.996094v103.277344h-15.222656c-4.042969 0-7.6875 2.4375-9.234375 6.171875s-.6914065 8.035156 2.164062 10.894531l60.527344 60.523437c1.953125 1.953126 4.507813 2.929688 7.066406 2.929688 2.558594 0 5.117188-.976562 7.070313-2.929688l21.0625-21.0625h124.859375c4.28125 13.878907 17.222656 23.992188 32.488281 23.992188 15.261719 0 28.203125-10.113281 32.484375-23.992188h84.46875c5.523437 0 10-4.476562 10-9.996093s-4.476563-9.996094-10-9.996094h-84.46875c-3.304687-10.714844-11.773437-19.1875-22.488281-22.488281v-65.480469h130.179687v49.972656c0 5.519531 4.472657 9.996094 9.996094 9.996094h70.609375c5.523438 0 9.996094-4.476563 9.996094-9.996094v-103.277343h15.222656c4.042969 0 7.6875-2.4375 9.238281-6.171876 1.546875-3.734374.691407-8.035156-2.164062-10.894531zm-405.015625-79.574219v-79.96875c0-5.511718 4.484375-9.996093 9.996094-9.996093h283.894531c5.511719 0 9.996093 4.484375 9.996093 9.996093v79.96875c0 5.515626-4.484374 10-9.996093 10h-283.894531c-5.515626 0-9.996094-4.488281-9.996094-10zm0-199.925781c0-5.511719 4.484375-9.996093 9.996094-9.996093h283.894531c5.511719 0 9.996093 4.484374 9.996093 9.996093v79.972657c0 5.511718-4.484374 9.996093-9.996093 9.996093h-283.894531c-5.511719 0-9.996094-4.484375-9.996094-9.996093zm-33.535156 457.691407-36.390626-36.390626h1.082032c5.523437 0 9.996094-4.476562 9.996094-10v-103.277343h50.621093v103.277343c0 5.519532 4.476563 9.996094 9.996094 9.996094h1.085937zm185.476562 4.140624c-7.714844 0-13.992188-6.277343-13.992188-13.996093s6.277344-13.996094 13.992188-13.996094c7.71875 0 13.996094 6.277344 13.996094 13.996094s-6.277344 13.996093-13.996094 13.996093zm-9.996094-46.480468c-10.714844 3.304687-19.183594 11.773437-22.488281 22.488281h-104.867187l19.46875-19.46875c2.855468-2.859375 3.710937-7.160156 2.164062-10.894531s-5.191406-6.171875-9.234375-6.171875h-15.222656v-51.433594h130.179687zm-130.179687-85.472656v-31.847657c0-5.523437-4.476563-10-9.996094-10h-1.769531v-48.117187c0-5.511719 4.484375-9.996094 9.996094-9.996094h283.894531c5.511719 0 9.996093 4.484375 9.996093 9.996094v5.527344l-34.058593 34.058593c-2.859375 2.859375-3.714844 7.160157-2.167969 10.894531 1.550781 3.734376 5.195312 6.171876 9.238281 6.171876h15.222657v33.3125zm360.960937-53.304688c-5.519531 0-9.996094 4.472656-9.996094 9.996094v103.273437h-50.617187v-103.273437c0-5.523438-4.476563-9.996094-10-9.996094h-1.082031l36.390625-36.390625 36.390625 36.390625zm0 0"/></svg>