<svg height="512pt" viewBox="0 -135 512.001 512" width="512pt" xmlns="http://www.w3.org/2000/svg"><path d="m378.851562 156.699219h-289.820312c-18.996094 0-34.394531-15.398438-34.394531-34.394531 0-18.992188 15.398437-34.390626 34.394531-34.390626h289.820312zm0 0" fill="#fff"/><path d="m446.3125 235.175781h-380.625c-32.136719 0-58.1875-26.050781-58.1875-58.183593v-111.304688c0-32.136719 26.050781-58.1875 58.1875-58.1875h380.625c32.136719 0 58.1875 26.050781 58.1875 58.1875v111.304688c0 32.132812-26.050781 58.183593-58.1875 58.183593zm0 0" fill="#0076de"/><path d="m446.257812 7.5h-38.828124c32.167968 0 58.242187 26.027344 58.242187 58.128906v111.417969c0 32.105469-26.074219 58.128906-58.242187 58.128906h38.828124c32.167969 0 58.242188-26.023437 58.242188-58.128906v-111.417969c0-32.101562-26.074219-58.128906-58.242188-58.128906zm0 0" fill="#005eb0"/><path d="m378.851562 156.699219h-289.820312c-18.996094 0-34.394531-15.398438-34.394531-34.394531 0-18.992188 15.398437-34.390626 34.394531-34.390626h289.820312zm0 0" fill="#fff"/><path d="m59.25 105.109375c-2.929688 5.0625-4.613281 10.929687-4.613281 17.199219 0 18.992187 15.398437 34.390625 34.390625 34.390625h289.824218v-34.394531h-289.820312c-12.730469.003906-23.835938-6.917969-29.78125-17.195313zm0 0" fill="#e6e6e6"/><path d="m454.140625 134.359375-77.769531 52.546875c-9.660156 6.527344-22.6875-.394531-22.6875-12.054688v-105.089843c0-11.660157 13.027344-18.578125 22.6875-12.050781l77.769531 52.542968c8.539063 5.769532 8.539063 18.339844 0 24.105469zm0 0" fill="#fff"/><path d="m454.140625 110.253906-15.125-10.21875-85.335937 57.714844v17.101562c0 11.660157 13.03125 18.582032 22.691406 12.054688l77.769531-52.542969c8.539063-5.769531 8.539063-18.339843 0-24.109375zm0 0" fill="#e6e6e6"/><path d="m399.433594 227.675781h-333.746094c-27.949219 0-50.6875-22.738281-50.6875-50.6875v-111.300781c0-27.949219 22.738281-50.6875 50.6875-50.6875h11.601562c4.140626 0 7.5-3.355469 7.5-7.5 0-4.140625-3.359374-7.5-7.5-7.5h-11.601562c-36.21875 0-65.6875 29.46875-65.6875 65.6875v111.304688c0 36.21875 29.46875 65.683593 65.6875 65.683593h333.746094c4.140625 0 7.5-3.355469 7.5-7.5 0-4.140625-3.359375-7.5-7.5-7.5zm0 0"/><path d="m446.3125 0h-334.023438c-4.140624 0-7.5 3.359375-7.5 7.5 0 4.144531 3.359376 7.5 7.5 7.5h334.023438c27.949219 0 50.6875 22.738281 50.6875 50.6875v111.304688c0 27.945312-22.738281 50.683593-50.6875 50.683593h-11.878906c-4.144532 0-7.5 3.359375-7.5 7.5 0 4.144531 3.355468 7.5 7.5 7.5h11.878906c36.222656 0 65.6875-29.464843 65.6875-65.683593v-111.304688c0-36.21875-29.46875-65.6875-65.6875-65.6875zm0 0"/><path d="m89.097656 95.414062h149.402344c4.140625 0 7.5-3.359374 7.5-7.5 0-4.144531-3.359375-7.5-7.5-7.5h-149.402344c-23.136718 0-41.960937 18.792969-41.960937 41.894532 0 23.101562 18.824219 41.894531 41.960937 41.894531h257.082032v10.644531c0 8.167969 4.484374 15.621094 11.703124 19.453125 3.257813 1.730469 6.816407 2.589844 10.363282 2.589844 4.324218 0 8.628906-1.273437 12.355468-3.792969l77.765626-52.542968c6.074218-4.101563 9.699218-10.925782 9.699218-18.246094 0-7.324219-3.625-14.148438-9.699218-18.25l-77.765626-52.542969c-6.78125-4.582031-15.488281-5.042969-22.71875-1.203125-7.21875 3.835938-11.703124 11.289062-11.703124 19.453125v10.648437h-72.679688c-4.144531 0-7.5 3.355469-7.5 7.5 0 4.140626 3.355469 7.5 7.5 7.5h80.183594c4.140625 0 7.5-3.359374 7.5-7.5v-18.148437c0-3.808594 2.613281-5.609375 3.738281-6.207031 1.128906-.597656 4.101563-1.765625 7.28125.386718l77.769531 52.542969c1.964844 1.328125 3.09375 3.449219 3.09375 5.820313 0 2.367187-1.128906 4.488281-3.09375 5.816406l-77.769531 52.542969c-3.179687 2.152343-6.152344.984375-7.28125.386719-1.125-.597657-3.738281-2.394532-3.738281-6.207032v-18.144531c0-4.144531-3.359375-7.5-7.5-7.5h-264.585938c-14.867187 0-26.960937-12.066406-26.960937-26.894531 0-14.832032 12.09375-26.894532 26.960937-26.894532zm0 0"/></svg>